<svg viewBox="0 0 100 100" xmlns="http://www.w3.org/2000/svg">
  <!-- Background circle -->
  <circle cx="50" cy="50" r="45" fill="#4F46E5" stroke="#312E81" stroke-width="2"/>
  
  <!-- Clipboard background -->
  <rect x="25" y="20" width="50" height="60" rx="4" fill="#FFFFFF"/>
  
  <!-- Clipboard clip -->
  <rect x="42" y="15" width="16" height="10" rx="3" fill="#9CA3AF" stroke="#6B7280" stroke-width="1"/>
  
  <!-- Task lines -->
  <rect x="32" y="32" width="3" height="3" rx="1.5" fill="#10B981"/>
  <rect x="38" y="31" width="25" height="2" rx="1" fill="#374151"/>
  <rect x="38" y="34" width="18" height="2" rx="1" fill="#9CA3AF"/>
  
  <!-- Second task (checked) -->
  <circle cx="33.5" cy="43.5" r="1.5" fill="#10B981"/>
  <path d="M31.5 43.5L33 45L36.5 41.5" stroke="#FFFFFF" stroke-width="1.5" fill="none" stroke-linecap="round"/>
  <rect x="38" y="42" width="25" height="2" rx="1" fill="#374151"/>
  <rect x="38" y="45" width="15" height="2" rx="1" fill="#9CA3AF"/>
  
  <!-- Third task -->
  <rect x="32" y="54" width="3" height="3" rx="1.5" fill="#10B981"/>
  <rect x="38" y="53" width="25" height="2" rx="1" fill="#374151"/>
  <rect x="38" y="56" width="20" height="2" rx="1" fill="#9CA3AF"/>
  
  <!-- Fourth task (in progress) -->
  <circle cx="33.5" cy="65.5" r="1.5" fill="#F59E0B"/>
  <rect x="38" y="64" width="25" height="2" rx="1" fill="#374151"/>
  <rect x="38" y="67" width="22" height="2" rx="1" fill="#9CA3AF"/>
  
  <!-- Progress indicator -->
  <circle cx="75" cy="25" r="8" fill="#EF4444"/>
  <text x="75" y="29" text-anchor="middle" fill="#FFFFFF" font-family="Arial" font-size="10" font-weight="bold">3</text>
</svg>